<svg width="24" height="24" viewBox="0 0 24 24" fill="none" xmlns="http://www.w3.org/2000/svg">
  <path d="M9.09375 3C7.88852 3 6.71036 3.35739 5.70825 4.02698C4.70613 4.69657 3.92508 5.64829 3.46386 6.76177C3.00264 7.87526 2.88196 9.10051 3.11709 10.2826C3.35222 11.4647 3.93259 12.5505 4.78482 13.4027C5.63705 14.2549 6.72285 14.8353 7.90492 15.0704C9.08699 15.3055 10.3122 15.1849 11.4257 14.7236C12.5392 14.2624 13.4909 13.4814 14.1605 12.4793C14.8301 11.4771 15.1875 10.299 15.1875 9.09375C15.1874 7.47762 14.5453 5.92771 13.4026 4.78493C12.2598 3.64215 10.7099 3.0001 9.09375 3Z" stroke-width="2" stroke-miterlimit="10"/>
  <path d="M13.5 13.5L21 21" stroke-width="2" stroke-miterlimit="10" stroke-linecap="round"/>
</svg>
